<svg xmlns="http://www.w3.org/2000/svg" width="256" height="256" shape-rendering="geometricPrecision"><g transform="translate(256, 0) scale(-1, 1)translate(0, 256) scale(1, -1)scale(1,1)" stroke-width=".05%"><g fill="#6e2043"><path d=" M 69.43 12.67 C 76.27 12.07 83.14 12.45 90.00 12.39 C 120.69 12.35 151.37 12.45 182.06 12.33 C 184.40 12.32 186.73 12.66 189.05 12.96 C 190.07 18.92 189.56 24.98 189.62 31.00 C 189.61 92.00 189.62 153.00 189.61 214.00 C 189.34 222.99 190.29 232.03 189.10 240.97 C 187.10 241.31 185.10 241.69 183.07 241.69 C 151.38 241.53 119.69 241.66 88.00 241.61 C 81.63 241.54 75.22 242.12 68.91 241.04 C 68.07 234.39 68.53 227.68 68.46 221.00 C 68.44 156.67 68.49 92.33 68.44 28.00 C 68.60 22.90 67.70 17.59 69.43 12.67 Z"/></g></g><g transform="scale(1,1)" stroke-width=".05%"><g fill="#6e2043"><path d=" M 112.59 45.03 C 114.68 40.35 118.59 36.01 123.81 35.05 C 127.65 35.07 131.98 34.21 135.31 36.67 C 138.44 38.40 140.20 41.62 141.67 44.74 C 150.04 45.92 157.69 51.08 161.57 58.63 C 166.32 66.98 166.57 77.65 162.31 86.24 C 160.87 88.43 163.16 90.53 164.47 92.11 C 172.37 88.70 181.44 87.37 189.76 90.08 C 198.70 92.77 206.61 99.95 208.78 109.21 C 209.18 110.62 209.25 112.37 210.80 113.05 C 216.33 116.27 219.94 122.60 219.03 129.06 C 219.52 134.79 214.30 138.85 209.32 140.31 C 207.93 148.87 202.74 156.82 195.22 161.22 C 188.36 165.00 180.25 165.30 172.72 163.80 C 173.02 165.21 173.35 166.60 173.71 167.99 C 173.10 168.57 171.89 169.71 171.28 170.29 C 169.41 169.61 167.51 168.72 166.54 166.87 C 167.21 164.73 169.69 164.33 171.39 163.32 C 169.37 162.36 167.44 160.72 165.06 161.03 C 163.45 161.06 162.30 162.44 160.99 163.20 C 166.21 172.75 166.96 184.90 161.72 194.59 C 158.00 201.99 150.71 207.44 142.46 208.56 C 138.39 211.22 137.10 217.25 132.02 218.84 C 128.25 219.05 123.99 219.61 120.66 217.41 C 117.41 215.58 115.61 212.16 113.68 209.13 C 98.20 207.29 87.06 191.15 89.40 176.06 C 90.10 171.69 91.84 167.59 93.88 163.69 C 92.70 162.32 91.45 161.02 90.19 159.74 C 82.25 164.59 72.30 166.11 63.45 162.99 C 53.75 160.10 45.62 151.37 45.26 140.97 C 40.45 137.82 34.80 134.19 34.20 127.88 C 33.36 120.52 39.45 115.04 45.51 112.15 C 46.99 101.83 54.26 92.20 64.44 89.19 C 71.21 86.89 78.69 87.84 85.13 90.75 C 87.28 91.63 90.99 93.35 92.29 90.37 C 94.11 86.99 90.20 84.18 89.79 80.92 C 87.44 70.59 90.21 58.60 97.99 51.15 C 101.85 47.16 107.59 46.69 112.59 45.03 M 116.90 48.85 C 114.42 49.02 111.98 49.49 109.58 50.16 C 105.31 52.42 101.20 55.36 98.73 59.62 C 95.33 65.00 93.03 71.87 95.24 78.13 C 96.42 82.39 101.07 84.33 102.46 88.50 C 103.67 91.91 107.73 90.82 110.48 91.09 C 111.32 90.05 112.13 89.00 112.92 87.93 C 111.03 87.99 109.13 88.04 107.24 88.07 C 106.50 87.18 105.76 86.29 105.01 85.40 C 104.98 84.07 104.96 82.74 104.93 81.40 C 106.38 80.06 107.83 78.34 109.98 78.28 C 113.66 77.74 115.68 81.44 118.03 83.56 C 118.05 85.52 118.04 87.48 118.02 89.45 C 114.47 96.46 105.02 96.53 98.83 93.25 C 96.77 91.85 95.30 94.51 93.73 95.47 C 93.87 99.85 96.66 103.75 96.01 108.21 C 95.23 113.31 90.18 117.22 85.07 117.00 C 83.28 116.53 81.68 115.58 80.01 114.82 C 79.06 112.12 77.86 109.14 79.13 106.34 C 80.66 104.73 82.73 103.84 84.61 102.73 C 85.78 103.70 86.93 104.68 88.07 105.69 C 88.03 107.99 87.96 110.29 87.88 112.59 C 91.66 111.06 92.65 106.64 90.98 103.18 C 88.27 101.94 85.80 100.18 84.30 97.53 C 83.40 95.66 81.49 94.89 79.56 94.56 C 70.18 92.31 59.29 95.53 53.71 103.67 C 50.61 107.21 50.21 112.08 48.40 116.22 C 45.90 118.02 42.62 119.06 41.04 121.90 C 38.86 125.08 39.06 129.63 41.55 132.57 C 43.69 134.30 46.38 135.15 48.72 136.56 C 49.38 139.59 50.21 142.59 51.16 145.54 C 54.49 152.51 61.17 157.76 68.86 158.92 C 73.90 159.34 79.27 159.29 83.81 156.76 C 85.31 155.31 85.45 153.00 86.23 151.13 C 87.42 151.10 88.61 151.03 89.80 150.90 C 93.43 147.55 91.58 140.81 86.63 139.98 C 87.16 142.16 87.98 144.26 88.85 146.33 C 87.78 147.64 86.87 149.40 84.93 149.40 C 82.52 149.94 80.61 148.01 78.90 146.65 C 79.10 143.97 78.27 140.63 80.72 138.72 C 83.62 135.84 88.07 135.42 91.72 137.04 C 96.81 140.96 97.13 148.24 94.26 153.59 C 92.86 155.91 95.25 157.99 96.98 159.21 C 99.30 161.25 101.79 158.66 103.99 157.80 C 106.71 156.19 110.02 157.10 112.80 158.05 C 116.20 160.95 118.73 165.53 117.86 170.09 C 115.66 175.02 108.99 175.30 104.91 172.63 C 104.55 170.53 104.56 168.40 105.14 166.33 C 107.57 165.21 110.19 165.57 112.73 166.06 C 111.78 164.66 110.77 163.31 109.75 161.98 C 108.64 161.98 107.54 161.99 106.44 162.00 C 103.21 164.46 100.30 167.32 97.09 169.80 C 92.89 178.27 94.08 189.34 100.29 196.58 C 104.33 201.59 110.64 203.86 116.78 205.01 C 118.28 207.74 119.55 211.03 122.57 212.43 C 125.32 214.15 128.62 214.05 131.74 214.09 C 134.65 211.08 135.47 206.50 139.08 204.11 C 142.46 204.31 145.63 203.07 148.45 201.31 C 158.52 195.30 162.99 181.56 158.07 170.85 C 154.82 168.34 152.56 164.88 149.72 161.95 C 147.84 161.93 145.96 161.93 144.08 161.95 C 143.07 163.34 142.12 164.79 141.33 166.32 C 143.73 166.38 146.74 163.92 148.70 166.20 C 150.57 167.44 149.99 169.84 150.21 171.74 C 147.79 173.62 144.55 175.42 141.44 174.18 C 139.41 173.80 138.27 171.92 136.93 170.55 C 136.94 168.38 136.78 166.18 137.12 164.02 C 138.85 159.76 143.59 157.40 148.06 157.79 C 151.11 157.48 153.63 159.62 156.53 159.99 C 158.22 158.94 159.69 157.58 161.12 156.22 C 159.32 152.18 157.40 148.02 157.90 143.47 C 159.41 141.22 160.91 138.66 163.55 137.59 C 167.80 135.66 175.28 136.34 175.55 142.24 C 176.85 146.95 171.58 148.90 168.77 151.39 C 169.11 153.11 169.51 154.83 169.94 156.54 C 176.49 159.57 184.42 160.27 191.01 156.99 C 196.15 154.69 200.03 150.38 202.85 145.60 C 203.94 142.81 204.87 139.94 205.25 136.95 C 208.42 135.21 211.84 133.66 214.07 130.67 C 213.93 127.78 214.40 124.70 212.96 122.05 C 211.64 119.04 208.44 117.75 205.62 116.53 C 204.15 108.17 199.17 100.12 191.40 96.31 C 185.18 93.84 178.27 93.52 171.81 95.23 C 170.43 97.17 169.42 99.32 168.16 101.33 C 166.78 101.96 165.21 102.02 163.85 102.70 C 163.10 103.97 162.63 105.37 162.07 106.72 C 162.87 109.61 164.37 112.28 167.55 112.97 C 167.70 110.51 166.09 108.68 164.75 106.83 C 165.75 106.04 166.75 105.26 167.77 104.50 C 168.00 104.03 168.45 103.09 168.67 102.62 C 170.37 103.46 172.13 104.21 173.71 105.27 C 175.45 106.65 175.24 109.14 174.86 111.09 C 172.71 115.23 168.20 117.88 163.49 117.11 C 161.38 115.51 159.14 113.56 158.77 110.77 C 157.74 106.90 159.89 103.31 161.00 99.74 C 161.52 97.89 161.59 95.38 159.86 94.14 C 157.57 91.72 154.42 94.22 151.92 94.97 C 146.42 97.74 140.00 94.21 136.97 89.41 C 136.67 87.04 136.66 84.66 136.92 82.29 C 140.36 77.29 149.38 77.97 151.13 84.07 C 150.12 85.56 148.82 86.83 147.59 88.14 C 145.67 87.80 143.74 87.16 141.78 87.63 C 142.44 88.76 143.12 89.88 143.79 91.00 C 146.06 91.00 148.34 91.00 150.62 91.02 C 151.76 89.35 152.68 87.54 153.85 85.89 C 155.40 84.39 157.67 83.48 158.47 81.34 C 160.95 75.74 160.50 69.02 158.07 63.48 C 154.21 64.40 154.32 69.10 153.34 72.18 C 149.91 71.75 146.46 70.91 142.98 71.33 C 139.39 72.26 137.22 75.51 134.85 78.09 C 136.16 73.98 137.12 69.50 140.21 66.28 C 142.64 63.40 146.08 61.54 149.74 60.76 C 151.84 62.66 154.49 63.41 157.23 62.65 C 155.16 57.35 150.40 53.95 145.66 51.20 C 143.23 49.80 140.10 49.80 137.84 48.23 C 135.32 44.17 132.43 38.87 126.90 39.00 C 121.63 39.46 119.15 44.77 116.90 48.85 M 161.98 144.45 C 162.01 145.45 162.05 146.45 162.09 147.45 C 163.21 149.95 165.25 152.06 168.21 150.75 C 167.88 148.72 166.17 147.39 165.01 145.82 C 166.29 143.89 167.79 141.89 167.33 139.42 C 165.29 140.82 163.65 142.66 161.98 144.45 Z"/><path d=" M 123.76 51.90 C 125.02 49.77 125.87 47.38 127.61 45.55 C 128.87 47.69 129.92 49.95 131.30 52.03 C 132.68 52.06 134.06 52.10 135.44 52.15 C 135.79 52.46 136.49 53.07 136.84 53.38 C 133.61 56.83 130.63 60.69 129.21 65.27 C 127.08 71.01 128.52 77.21 127.68 83.14 C 126.82 80.89 126.19 78.50 126.58 76.08 C 127.51 67.61 123.82 59.17 117.87 53.25 C 118.23 52.96 118.94 52.38 119.29 52.09 C 120.78 52.06 122.28 52.06 123.76 51.90 Z"/><path d=" M 111.78 56.80 C 115.69 58.37 118.50 61.62 120.02 65.49 C 116.68 63.21 113.86 60.28 111.78 56.80 Z"/><path d=" M 133.46 67.56 C 134.77 62.77 138.15 58.63 142.97 57.09 C 140.11 60.86 136.35 63.81 133.46 67.56 Z"/><path d=" M 101.50 62.05 C 106.47 60.28 112.13 62.62 114.97 66.92 C 117.19 69.74 118.28 73.18 119.38 76.53 C 114.60 72.08 107.54 69.70 101.22 72.05 C 100.46 69.32 99.80 66.57 99.15 63.81 C 99.74 63.37 100.92 62.49 101.50 62.05 Z"/><path d=" M 121.19 68.21 C 121.83 68.80 121.83 68.80 121.19 68.21 Z"/><path d=" M 167.58 82.65 C 169.63 81.26 172.45 80.84 174.39 82.68 C 172.94 84.75 171.23 86.64 169.04 87.94 C 167.32 86.81 166.19 84.43 167.58 82.65 Z"/><path d=" M 82.50 83.45 C 84.12 82.71 85.79 82.08 87.51 81.61 C 87.94 82.20 88.79 83.37 89.22 83.96 C 88.21 85.35 87.19 86.72 86.11 88.06 C 84.48 86.86 82.68 85.65 82.50 83.45 Z"/><path d=" M 126.29 91.78 C 126.70 90.06 128.51 91.30 128.81 92.40 C 129.64 94.42 130.00 96.59 130.55 98.69 C 132.46 98.39 134.28 97.70 136.06 96.95 C 137.01 101.42 136.51 106.71 132.88 109.89 C 130.34 112.69 125.48 113.00 122.75 110.33 C 120.87 108.78 120.13 106.37 119.05 104.27 C 118.98 101.94 118.94 99.61 118.93 97.28 C 120.16 97.65 121.39 98.01 122.63 98.35 C 124.06 96.28 125.15 94.02 126.29 91.78 Z"/><path d=" M 100.45 97.61 C 105.01 100.19 108.81 103.87 111.43 108.41 C 107.01 105.73 102.39 102.66 100.45 97.61 Z"/><path d=" M 181.95 100.25 C 184.72 99.97 187.34 98.99 189.93 98.02 C 191.03 100.27 192.46 102.43 192.99 104.89 C 191.06 112.06 184.63 116.77 177.64 118.36 C 181.88 113.51 183.95 106.50 181.95 100.25 Z"/><path d=" M 61.04 103.90 C 61.88 101.97 62.95 99.80 65.11 99.11 C 67.46 98.69 69.84 99.15 72.12 99.71 C 71.83 102.81 71.17 105.95 71.86 109.04 C 72.32 112.55 74.48 115.48 76.38 118.36 C 69.27 116.49 62.50 111.46 61.04 103.90 Z"/><path d=" M 145.29 108.45 C 147.70 104.12 151.22 100.20 155.81 98.14 C 153.74 102.80 149.59 105.98 145.29 108.45 Z"/><path d=" M 56.70 110.31 C 60.81 112.77 63.50 116.90 67.09 119.99 C 62.34 118.40 58.76 114.81 56.70 110.31 Z"/><path d=" M 188.05 119.55 C 190.63 116.33 193.45 113.24 196.98 111.03 C 195.45 115.09 192.02 118.02 188.05 119.55 Z"/><path d=" M 116.94 115.91 C 118.27 115.49 119.62 115.10 120.97 114.75 C 122.43 116.17 123.93 117.56 125.52 118.84 C 130.09 117.93 134.30 115.72 138.94 115.07 C 139.41 116.42 139.86 117.78 140.28 119.16 C 138.79 120.71 137.28 122.23 135.79 123.79 C 133.57 120.67 129.80 119.08 126.01 119.73 C 123.00 119.53 121.36 122.37 119.31 124.05 C 118.49 122.91 117.75 121.72 116.99 120.54 C 116.96 119.00 116.94 117.45 116.94 115.91 Z"/><path d=" M 53.31 116.55 C 55.82 118.80 57.69 121.95 61.12 122.97 C 68.29 125.56 76.08 125.67 83.60 126.27 C 78.15 129.17 72.00 126.50 66.30 128.18 C 61.23 129.60 57.28 133.28 52.99 136.16 C 52.55 134.19 52.21 132.20 51.87 130.21 C 50.03 129.26 48.19 128.28 46.38 127.26 C 47.10 124.73 49.86 124.20 51.86 123.00 C 52.17 120.81 52.44 118.60 53.31 116.55 Z"/><path d=" M 190.92 124.05 C 194.87 122.50 197.88 119.43 200.82 116.50 C 201.83 118.54 202.11 120.83 202.84 122.97 C 204.66 124.24 206.67 125.21 208.53 126.43 C 206.61 127.82 204.54 128.94 202.43 129.99 C 202.23 131.96 201.92 133.92 201.42 135.84 C 193.49 128.08 181.80 127.39 171.35 126.69 C 177.58 123.91 184.69 126.81 190.92 124.05 Z"/><path d=" M 98.75 117.89 C 103.84 117.83 109.55 119.01 112.81 123.28 C 114.45 124.88 113.93 127.32 114.14 129.37 C 110.86 133.67 105.89 136.85 100.27 136.14 C 100.00 134.06 99.82 131.44 97.54 130.54 C 96.13 129.22 92.78 128.87 93.01 126.54 C 95.31 125.45 98.00 125.27 100.11 123.78 C 99.83 121.78 99.18 119.86 98.75 117.89 Z"/><path d=" M 142.23 125.96 C 144.02 119.51 151.70 117.85 157.52 117.87 C 157.07 119.58 156.54 121.28 156.02 122.97 C 158.40 125.29 161.77 125.83 164.74 127.03 C 162.51 128.97 159.71 129.98 157.18 131.43 C 155.79 132.52 156.99 134.62 156.88 136.09 C 154.01 136.12 151.09 136.10 148.40 134.96 C 145.32 132.97 141.49 130.13 142.23 125.96 Z"/><path d=" M 124.95 125.53 C 125.82 125.20 127.56 124.53 128.44 124.20 C 129.35 125.26 131.87 125.95 130.81 127.70 C 130.28 128.58 129.71 129.44 129.11 130.27 C 127.72 129.95 126.34 129.62 124.97 129.24 C 124.96 128.00 124.95 126.77 124.95 125.53 Z"/><path d=" M 131.46 134.33 C 133.89 133.42 135.18 131.01 136.58 129.01 C 138.51 131.79 140.98 135.70 137.55 138.43 C 135.80 137.63 134.04 136.83 132.31 135.98 C 127.29 135.70 122.40 136.96 117.55 138.05 C 117.25 137.33 116.66 135.89 116.36 135.17 C 117.19 133.32 118.09 131.51 119.04 129.72 C 121.37 133.93 126.94 136.24 131.46 134.33 Z"/><path d=" M 57.16 141.91 C 58.83 137.73 62.55 135.09 66.55 133.39 C 63.81 136.61 61.13 140.12 57.16 141.91 Z"/><path d=" M 188.22 133.55 C 192.03 135.15 195.52 137.85 196.84 141.91 C 193.53 139.60 190.72 136.69 188.22 133.55 Z"/><path d=" M 63.35 143.47 C 66.00 138.47 71.32 135.98 76.63 134.89 C 75.05 137.05 73.21 139.11 72.41 141.72 C 71.21 145.39 71.70 149.30 72.11 153.06 C 68.88 154.11 64.45 155.05 62.25 151.65 C 59.86 149.15 62.27 146.01 63.35 143.47 Z"/><path d=" M 177.72 134.81 C 182.88 136.49 188.65 138.60 191.30 143.75 C 193.31 147.20 192.31 151.41 190.28 154.60 C 187.53 153.87 184.80 152.99 181.95 152.80 C 183.88 146.60 181.96 139.61 177.72 134.81 Z"/><path d=" M 125.48 140.88 C 127.91 140.94 130.67 140.45 132.67 142.19 C 136.50 145.73 136.88 151.47 136.05 156.32 C 134.74 155.58 133.45 154.82 132.16 154.06 C 131.55 154.46 130.95 154.86 130.35 155.26 C 129.67 157.77 128.94 160.27 127.79 162.61 C 125.58 160.45 124.72 157.40 122.78 155.08 C 121.51 155.03 120.24 155.05 118.97 155.11 C 119.08 152.32 118.44 149.31 119.75 146.71 C 120.76 144.04 123.26 142.46 125.48 140.88 Z"/><path d=" M 100.46 153.53 C 102.47 148.32 107.18 145.04 111.80 142.33 C 108.92 146.83 105.31 151.09 100.46 153.53 Z"/><path d=" M 144.37 142.45 C 149.12 144.64 153.68 147.94 155.66 152.99 C 150.86 150.74 147.70 146.38 144.37 142.45 Z"/><path d=" M 82.93 168.20 C 82.25 166.05 84.32 164.99 85.63 163.76 C 86.87 164.34 88.11 164.92 89.34 165.52 C 89.20 167.80 87.80 169.47 86.05 170.77 C 84.98 169.94 83.85 169.19 82.93 168.20 Z"/><path d=" M 125.76 187.09 C 126.18 182.09 126.09 177.02 127.40 172.12 C 128.52 181.83 128.18 193.93 137.28 200.06 C 135.06 200.86 132.74 201.32 130.44 201.85 C 129.69 203.83 129.34 207.57 126.39 207.07 C 125.26 205.46 124.99 203.46 124.13 201.72 C 121.93 201.09 119.59 201.11 117.35 200.67 C 120.67 196.51 125.03 192.68 125.76 187.09 Z"/><path d=" M 101.16 181.83 C 107.60 182.61 114.73 181.57 119.31 176.56 C 118.53 178.93 117.72 181.30 116.86 183.64 C 113.98 188.93 107.64 193.80 101.47 190.94 C 100.85 190.46 99.60 189.51 98.97 189.04 C 99.68 186.62 100.39 184.22 101.16 181.83 Z"/><path d=" M 135.30 176.06 C 139.46 181.66 146.92 183.40 153.39 181.22 C 154.18 183.83 154.89 186.47 155.45 189.15 C 153.13 190.62 150.66 191.98 147.85 192.15 C 141.02 189.69 136.22 183.19 135.30 176.06 Z"/><path d=" M 111.32 196.37 C 114.44 192.50 118.48 189.49 121.44 185.46 C 119.95 190.45 116.39 194.79 111.32 196.37 Z"/><path d=" M 133.79 186.81 C 136.81 189.99 140.62 192.48 142.93 196.29 C 138.30 195.00 135.86 190.77 133.79 186.81 Z"/></g><g fill="#d4737c"><path d=" M 116.90 48.85 C 119.15 44.77 121.63 39.46 126.90 39.00 C 132.43 38.87 135.32 44.17 137.84 48.23 C 140.10 49.80 143.23 49.80 145.66 51.20 C 150.40 53.95 155.16 57.35 157.23 62.65 C 154.49 63.41 151.84 62.66 149.74 60.76 C 146.08 61.54 142.64 63.40 140.21 66.28 C 137.12 69.50 136.16 73.98 134.85 78.09 C 137.22 75.51 139.39 72.26 142.98 71.33 C 146.46 70.91 149.91 71.75 153.34 72.18 C 154.32 69.10 154.21 64.40 158.07 63.48 C 160.50 69.02 160.95 75.74 158.47 81.34 C 157.67 83.48 155.40 84.39 153.85 85.89 C 152.68 87.54 151.76 89.35 150.62 91.02 C 148.34 91.00 146.06 91.00 143.79 91.00 C 143.12 89.88 142.44 88.76 141.78 87.63 C 143.74 87.16 145.67 87.80 147.59 88.14 C 148.82 86.83 150.12 85.56 151.13 84.07 C 149.38 77.97 140.36 77.29 136.92 82.29 C 136.66 84.66 136.67 87.04 136.97 89.41 C 140.00 94.21 146.42 97.74 151.92 94.97 C 154.42 94.22 157.57 91.72 159.86 94.14 C 161.59 95.38 161.52 97.89 161.00 99.74 C 159.89 103.31 157.74 106.90 158.77 110.77 C 159.14 113.56 161.38 115.51 163.49 117.11 C 168.20 117.88 172.71 115.23 174.86 111.09 C 175.24 109.14 175.45 106.65 173.71 105.27 C 172.13 104.21 170.37 103.46 168.67 102.62 C 168.45 103.09 168.00 104.03 167.77 104.50 C 166.75 105.26 165.75 106.04 164.75 106.83 C 166.09 108.68 167.70 110.51 167.55 112.97 C 164.37 112.28 162.87 109.61 162.07 106.72 C 162.63 105.37 163.10 103.97 163.85 102.70 C 165.21 102.02 166.78 101.96 168.16 101.33 C 169.42 99.32 170.43 97.17 171.81 95.23 C 178.27 93.52 185.18 93.84 191.40 96.31 C 199.17 100.12 204.15 108.17 205.62 116.53 C 208.44 117.75 211.64 119.04 212.96 122.05 C 214.40 124.70 213.93 127.78 214.07 130.67 C 211.84 133.66 208.42 135.21 205.25 136.95 C 204.87 139.94 203.94 142.81 202.85 145.60 C 200.03 150.38 196.15 154.69 191.01 156.99 C 184.42 160.27 176.49 159.57 169.94 156.54 C 169.51 154.83 169.11 153.11 168.77 151.39 C 171.58 148.90 176.85 146.95 175.55 142.24 C 175.28 136.34 167.80 135.66 163.55 137.59 C 160.91 138.66 159.41 141.22 157.90 143.47 C 157.40 148.02 159.32 152.18 161.12 156.22 C 159.69 157.58 158.22 158.94 156.53 159.99 C 153.63 159.62 151.11 157.48 148.06 157.79 C 143.59 157.40 138.85 159.76 137.12 164.02 C 136.78 166.18 136.94 168.38 136.93 170.55 C 138.27 171.92 139.41 173.80 141.44 174.18 C 144.55 175.42 147.79 173.62 150.21 171.74 C 149.99 169.84 150.57 167.44 148.70 166.20 C 146.74 163.92 143.73 166.38 141.33 166.32 C 142.12 164.79 143.07 163.34 144.08 161.95 C 145.96 161.93 147.84 161.93 149.72 161.95 C 152.56 164.88 154.82 168.34 158.07 170.85 C 162.99 181.56 158.52 195.30 148.45 201.31 C 145.63 203.07 142.46 204.31 139.08 204.11 C 135.47 206.50 134.65 211.08 131.74 214.09 C 128.62 214.05 125.32 214.15 122.57 212.43 C 119.55 211.03 118.28 207.74 116.78 205.01 C 110.64 203.86 104.33 201.59 100.29 196.58 C 94.08 189.34 92.89 178.27 97.09 169.80 C 100.30 167.32 103.21 164.46 106.44 162.00 C 107.54 161.99 108.64 161.98 109.75 161.98 C 110.77 163.31 111.78 164.66 112.73 166.06 C 110.19 165.57 107.57 165.21 105.14 166.33 C 104.56 168.40 104.55 170.53 104.91 172.63 C 108.99 175.30 115.66 175.02 117.86 170.09 C 118.73 165.53 116.20 160.95 112.80 158.05 C 110.02 157.10 106.71 156.19 103.99 157.80 C 101.79 158.66 99.30 161.25 96.98 159.21 C 95.25 157.99 92.86 155.91 94.26 153.59 C 97.13 148.24 96.81 140.96 91.72 137.04 C 88.07 135.42 83.62 135.84 80.72 138.72 C 78.27 140.63 79.10 143.97 78.90 146.65 C 80.61 148.01 82.52 149.94 84.93 149.40 C 86.87 149.40 87.78 147.64 88.85 146.33 C 87.98 144.26 87.16 142.16 86.63 139.98 C 91.58 140.81 93.43 147.55 89.80 150.90 C 88.61 151.03 87.42 151.10 86.23 151.13 C 85.45 153.00 85.31 155.31 83.81 156.76 C 79.27 159.29 73.90 159.34 68.86 158.92 C 61.17 157.76 54.49 152.51 51.16 145.54 C 50.21 142.59 49.38 139.59 48.72 136.56 C 46.38 135.15 43.69 134.30 41.55 132.57 C 39.06 129.63 38.86 125.08 41.04 121.90 C 42.62 119.06 45.90 118.02 48.40 116.22 C 50.21 112.08 50.61 107.21 53.71 103.67 C 59.29 95.53 70.18 92.31 79.56 94.56 C 81.49 94.89 83.40 95.66 84.30 97.53 C 85.80 100.18 88.27 101.94 90.98 103.18 C 92.65 106.64 91.66 111.06 87.88 112.59 C 87.96 110.29 88.03 107.99 88.07 105.69 C 86.93 104.68 85.78 103.70 84.61 102.73 C 82.73 103.84 80.66 104.73 79.13 106.34 C 77.86 109.14 79.06 112.12 80.01 114.82 C 81.68 115.58 83.28 116.53 85.07 117.00 C 90.18 117.22 95.23 113.31 96.01 108.21 C 96.66 103.75 93.87 99.85 93.73 95.47 C 95.30 94.51 96.77 91.85 98.83 93.25 C 105.02 96.53 114.47 96.46 118.02 89.45 C 118.04 87.48 118.05 85.52 118.03 83.56 C 115.68 81.44 113.66 77.74 109.98 78.28 C 107.83 78.34 106.38 80.06 104.93 81.40 C 104.96 82.74 104.98 84.07 105.01 85.40 C 105.76 86.29 106.50 87.18 107.24 88.07 C 109.13 88.04 111.03 87.99 112.92 87.93 C 112.13 89.00 111.32 90.05 110.48 91.09 C 107.73 90.82 103.67 91.91 102.46 88.50 C 101.07 84.33 96.42 82.39 95.24 78.13 C 93.03 71.87 95.33 65.00 98.73 59.62 C 101.20 55.36 105.31 52.42 109.58 50.16 C 111.98 49.49 114.42 49.02 116.90 48.85 M 123.76 51.90 C 122.28 52.06 120.78 52.06 119.29 52.09 C 118.94 52.38 118.23 52.96 117.87 53.25 C 123.82 59.17 127.51 67.61 126.58 76.08 C 126.19 78.50 126.82 80.89 127.68 83.14 C 128.52 77.21 127.08 71.01 129.21 65.27 C 130.63 60.69 133.61 56.83 136.84 53.38 C 136.49 53.07 135.79 52.46 135.44 52.15 C 134.06 52.10 132.68 52.06 131.30 52.03 C 129.92 49.95 128.87 47.69 127.61 45.55 C 125.87 47.38 125.02 49.77 123.76 51.90 M 111.78 56.80 C 113.86 60.28 116.68 63.21 120.02 65.49 C 118.50 61.62 115.69 58.37 111.78 56.80 M 133.46 67.56 C 136.35 63.81 140.11 60.86 142.97 57.09 C 138.15 58.63 134.77 62.77 133.46 67.56 M 101.50 62.05 C 100.92 62.49 99.74 63.37 99.15 63.81 C 99.80 66.57 100.46 69.32 101.22 72.05 C 107.54 69.70 114.60 72.08 119.38 76.53 C 118.28 73.18 117.19 69.74 114.97 66.92 C 112.13 62.62 106.47 60.28 101.50 62.05 M 121.19 68.21 C 121.83 68.80 121.83 68.80 121.19 68.21 M 126.29 91.78 C 125.15 94.02 124.06 96.28 122.63 98.35 C 121.39 98.01 120.16 97.65 118.93 97.28 C 118.94 99.61 118.98 101.94 119.05 104.27 C 120.13 106.37 120.87 108.78 122.75 110.33 C 125.48 113.00 130.34 112.69 132.88 109.89 C 136.51 106.71 137.01 101.42 136.06 96.95 C 134.28 97.70 132.46 98.39 130.55 98.69 C 130.00 96.59 129.64 94.42 128.81 92.40 C 128.51 91.30 126.70 90.06 126.29 91.78 M 100.45 97.61 C 102.39 102.66 107.01 105.73 111.43 108.41 C 108.81 103.87 105.01 100.19 100.45 97.61 M 181.95 100.25 C 183.95 106.50 181.88 113.51 177.64 118.36 C 184.63 116.77 191.06 112.06 192.99 104.89 C 192.46 102.43 191.03 100.27 189.93 98.02 C 187.34 98.99 184.72 99.97 181.95 100.25 M 61.04 103.90 C 62.50 111.46 69.27 116.49 76.38 118.36 C 74.48 115.48 72.32 112.55 71.86 109.04 C 71.17 105.95 71.83 102.81 72.12 99.71 C 69.84 99.15 67.46 98.69 65.11 99.11 C 62.95 99.80 61.88 101.97 61.04 103.90 M 145.29 108.45 C 149.59 105.98 153.74 102.80 155.81 98.14 C 151.22 100.20 147.70 104.12 145.29 108.45 M 56.70 110.31 C 58.76 114.81 62.34 118.40 67.09 119.99 C 63.50 116.90 60.81 112.77 56.70 110.31 M 188.05 119.55 C 192.02 118.02 195.45 115.09 196.98 111.03 C 193.45 113.24 190.63 116.33 188.05 119.55 M 116.94 115.91 C 116.94 117.45 116.96 119.00 116.99 120.54 C 117.75 121.72 118.49 122.91 119.31 124.05 C 121.36 122.37 123.00 119.53 126.01 119.73 C 129.80 119.08 133.57 120.67 135.79 123.79 C 137.28 122.23 138.79 120.71 140.28 119.16 C 139.86 117.78 139.41 116.42 138.94 115.07 C 134.30 115.72 130.09 117.93 125.52 118.84 C 123.93 117.56 122.43 116.17 120.97 114.75 C 119.62 115.10 118.27 115.49 116.94 115.91 M 53.31 116.55 C 52.44 118.60 52.17 120.81 51.86 123.00 C 49.86 124.20 47.10 124.73 46.38 127.26 C 48.19 128.28 50.03 129.26 51.87 130.21 C 52.21 132.20 52.55 134.19 52.99 136.16 C 57.28 133.28 61.23 129.60 66.30 128.18 C 72.00 126.50 78.15 129.17 83.60 126.27 C 76.08 125.67 68.29 125.56 61.12 122.97 C 57.69 121.95 55.82 118.80 53.31 116.55 M 190.92 124.05 C 184.69 126.81 177.58 123.91 171.35 126.69 C 181.80 127.39 193.49 128.08 201.42 135.84 C 201.92 133.92 202.23 131.96 202.43 129.99 C 204.54 128.94 206.61 127.82 208.53 126.43 C 206.67 125.21 204.66 124.24 202.84 122.97 C 202.11 120.83 201.83 118.54 200.82 116.50 C 197.88 119.43 194.87 122.50 190.92 124.05 M 98.75 117.89 C 99.18 119.86 99.83 121.78 100.11 123.78 C 98.00 125.27 95.31 125.45 93.01 126.54 C 92.78 128.87 96.13 129.22 97.54 130.54 C 99.82 131.44 100.00 134.06 100.27 136.14 C 105.89 136.85 110.86 133.67 114.14 129.37 C 113.93 127.32 114.45 124.88 112.81 123.28 C 109.55 119.01 103.84 117.83 98.75 117.89 M 142.23 125.96 C 141.49 130.13 145.32 132.97 148.40 134.96 C 151.09 136.10 154.01 136.12 156.88 136.09 C 156.99 134.62 155.79 132.52 157.18 131.43 C 159.71 129.98 162.51 128.97 164.74 127.03 C 161.77 125.83 158.40 125.29 156.02 122.97 C 156.54 121.28 157.07 119.58 157.52 117.87 C 151.70 117.85 144.02 119.51 142.23 125.96 M 124.95 125.53 C 124.95 126.77 124.96 128.00 124.97 129.24 C 126.34 129.62 127.72 129.95 129.11 130.27 C 129.71 129.44 130.28 128.58 130.81 127.70 C 131.87 125.95 129.35 125.26 128.44 124.20 C 127.56 124.53 125.82 125.20 124.95 125.53 M 131.46 134.33 C 126.94 136.24 121.37 133.93 119.04 129.72 C 118.09 131.51 117.19 133.32 116.36 135.17 C 116.66 135.89 117.25 137.33 117.55 138.05 C 122.40 136.96 127.29 135.70 132.31 135.98 C 134.04 136.83 135.80 137.63 137.55 138.43 C 140.98 135.70 138.51 131.79 136.58 129.01 C 135.18 131.01 133.89 133.42 131.46 134.33 M 57.16 141.91 C 61.13 140.12 63.81 136.61 66.55 133.39 C 62.55 135.09 58.83 137.73 57.16 141.91 M 188.22 133.55 C 190.72 136.69 193.53 139.60 196.84 141.91 C 195.52 137.85 192.03 135.15 188.22 133.55 M 63.35 143.47 C 62.27 146.01 59.86 149.15 62.25 151.65 C 64.45 155.05 68.88 154.11 72.11 153.06 C 71.70 149.30 71.21 145.39 72.41 141.72 C 73.21 139.11 75.05 137.05 76.63 134.89 C 71.32 135.98 66.00 138.47 63.35 143.47 M 177.72 134.81 C 181.96 139.61 183.88 146.60 181.95 152.80 C 184.80 152.99 187.53 153.87 190.28 154.60 C 192.31 151.41 193.31 147.20 191.30 143.75 C 188.65 138.60 182.88 136.49 177.72 134.81 M 125.48 140.88 C 123.26 142.46 120.76 144.04 119.75 146.71 C 118.44 149.31 119.08 152.32 118.97 155.11 C 120.24 155.05 121.51 155.03 122.78 155.08 C 124.72 157.40 125.58 160.45 127.79 162.61 C 128.94 160.27 129.67 157.77 130.35 155.26 C 130.95 154.86 131.55 154.46 132.16 154.06 C 133.45 154.82 134.74 155.58 136.05 156.32 C 136.88 151.47 136.50 145.73 132.67 142.19 C 130.67 140.45 127.91 140.94 125.48 140.88 M 100.46 153.53 C 105.31 151.09 108.92 146.83 111.80 142.33 C 107.18 145.04 102.47 148.32 100.46 153.53 M 144.37 142.45 C 147.70 146.38 150.86 150.74 155.66 152.99 C 153.68 147.94 149.12 144.64 144.37 142.45 M 125.76 187.09 C 125.03 192.68 120.67 196.51 117.35 200.67 C 119.59 201.11 121.93 201.09 124.13 201.72 C 124.99 203.46 125.26 205.46 126.39 207.07 C 129.34 207.57 129.69 203.83 130.44 201.85 C 132.74 201.32 135.06 200.86 137.28 200.06 C 128.18 193.93 128.52 181.83 127.40 172.12 C 126.09 177.02 126.18 182.09 125.76 187.09 M 101.16 181.83 C 100.39 184.22 99.68 186.62 98.97 189.04 C 99.60 189.51 100.85 190.46 101.47 190.94 C 107.64 193.80 113.98 188.93 116.86 183.64 C 117.72 181.30 118.53 178.93 119.31 176.56 C 114.73 181.57 107.60 182.61 101.16 181.83 M 135.30 176.06 C 136.22 183.19 141.02 189.69 147.85 192.15 C 150.66 191.98 153.13 190.62 155.45 189.15 C 154.89 186.47 154.18 183.83 153.39 181.22 C 146.92 183.40 139.46 181.66 135.30 176.06 M 111.32 196.37 C 116.39 194.79 119.95 190.45 121.44 185.46 C 118.48 189.49 114.44 192.50 111.32 196.37 M 133.79 186.81 C 135.86 190.77 138.30 195.00 142.93 196.29 C 140.62 192.48 136.81 189.99 133.79 186.81 Z"/><path d=" M 161.98 144.45 C 163.65 142.66 165.29 140.82 167.33 139.42 C 167.79 141.89 166.29 143.89 165.01 145.82 C 166.17 147.39 167.88 148.72 168.21 150.75 C 165.25 152.06 163.21 149.95 162.09 147.45 C 162.05 146.45 162.01 145.45 161.98 144.45 Z"/></g></g></svg>