<svg xmlns="http://www.w3.org/2000/svg" width="256" height="256" shape-rendering="geometricPrecision"><g transform="translate(256, 0) scale(-1, 1)translate(0, 256) scale(1, -1)scale(1,1)" stroke-width=".05%"><g fill="#20552e"><path d=" M 62.07 21.98 C 82.54 18.72 103.24 16.91 123.96 16.18 C 140.66 16.04 157.33 17.57 173.93 19.31 C 180.20 20.33 186.60 20.60 192.80 22.04 C 193.31 30.10 195.10 38.10 198.55 45.42 C 199.81 47.74 201.95 49.43 204.24 50.67 C 209.41 53.43 215.09 55.08 220.82 56.25 C 221.19 71.51 220.00 86.73 219.14 101.95 C 217.48 120.96 216.30 140.38 209.52 158.41 C 200.21 183.83 182.45 205.84 160.37 221.34 C 150.24 228.73 139.01 234.38 127.62 239.54 C 103.67 229.37 81.41 214.26 65.30 193.61 C 58.71 185.23 53.05 176.07 48.78 166.29 C 44.55 154.75 41.16 142.87 39.19 130.73 C 35.87 106.00 34.47 81.06 34.12 56.13 C 41.11 54.79 48.75 53.15 53.67 47.57 C 60.04 40.73 61.72 30.99 62.07 21.98 Z"/></g></g><g transform="translate(0, 256) scale(1, -1)scale(1,1)" stroke-width=".05%"><g fill="#6d9098"><path d=" M 128.44 42.08 C 130.19 48.84 133.37 55.70 139.42 59.64 C 143.38 62.26 148.58 61.29 152.43 58.92 C 151.63 60.83 151.39 63.74 148.79 64.06 C 140.79 66.68 133.29 61.11 128.49 55.21 C 123.71 61.18 116.05 66.75 108.05 64.02 C 105.57 63.60 105.37 60.82 104.61 58.94 C 107.85 61.01 111.66 61.58 115.43 60.89 C 122.65 57.30 126.82 49.72 128.44 42.08 Z"/><path d=" M 118.64 98.14 C 122.64 99.36 126.12 101.79 128.56 105.19 C 130.86 101.76 134.30 99.27 138.35 98.38 C 137.88 99.35 137.40 100.32 136.92 101.28 C 132.43 103.86 131.05 109.24 128.49 113.41 C 125.92 109.25 124.56 103.81 120.04 101.27 C 119.56 100.23 119.09 99.19 118.64 98.14 Z"/><path d=" M 78.81 99.08 C 79.90 100.60 80.92 102.16 81.98 103.70 C 81.15 107.42 81.32 111.80 84.28 114.58 C 88.89 119.05 93.63 123.43 97.72 128.39 C 100.73 132.85 103.05 137.71 105.20 142.63 C 107.20 148.17 112.72 151.83 118.36 152.82 C 115.45 150.31 111.61 149.01 109.13 145.98 C 106.61 143.38 105.86 139.74 104.30 136.59 C 102.75 133.27 100.65 130.26 98.60 127.24 C 101.39 128.73 103.93 130.76 106.01 133.13 C 107.49 136.32 107.48 140.26 110.23 142.79 C 114.41 148.13 122.86 150.64 128.51 146.12 C 134.14 150.79 142.54 148.06 146.79 142.83 C 149.55 140.28 149.46 136.27 151.02 133.09 C 153.11 130.72 155.68 128.78 158.38 127.15 C 156.54 130.07 154.50 132.88 153.01 136.01 C 151.26 139.33 150.49 143.21 147.88 146.03 C 145.36 149.01 141.59 150.41 138.56 152.75 C 144.27 151.98 149.77 148.13 151.78 142.62 C 154.75 136.01 157.76 129.13 163.14 124.08 C 166.28 120.55 169.90 117.50 173.17 114.10 C 175.71 111.30 175.66 107.29 175.13 103.79 C 175.96 102.08 177.12 100.57 178.20 99.02 C 180.02 105.30 180.77 112.10 178.52 118.37 C 176.66 120.85 174.35 122.99 172.70 125.65 C 168.67 131.01 168.00 137.88 165.76 144.02 C 173.18 141.95 180.40 138.97 186.72 134.52 C 184.74 138.18 183.53 142.45 180.39 145.36 C 178.77 146.99 176.49 147.53 174.36 148.17 C 166.78 150.04 158.96 151.91 152.39 156.34 C 149.47 158.34 146.17 160.24 144.46 163.48 C 143.25 165.88 144.09 168.60 144.97 170.96 C 148.18 172.81 152.29 172.39 155.24 170.26 C 157.38 168.38 156.79 165.50 155.85 163.16 C 155.66 165.07 156.37 167.34 154.75 168.83 C 152.48 170.40 149.57 170.08 146.96 170.12 C 146.14 168.11 145.93 165.96 145.87 163.81 C 154.60 153.55 168.70 152.11 180.58 147.67 C 186.24 143.23 187.34 135.58 190.30 129.42 C 191.12 127.60 193.27 127.41 194.88 126.67 C 201.06 124.08 207.10 120.77 211.80 115.91 C 214.57 113.11 217.06 110.06 219.72 107.15 C 216.86 114.10 214.24 121.17 210.82 127.86 C 207.42 132.71 201.99 135.70 198.70 140.64 C 194.72 146.39 189.45 152.03 182.28 153.38 C 178.39 154.50 174.31 153.74 170.36 154.26 C 167.81 154.67 165.91 156.49 164.59 158.59 C 161.79 161.92 165.45 168.35 169.81 166.83 C 172.64 166.29 173.72 163.40 174.37 160.94 C 173.00 162.23 171.73 163.61 170.45 164.98 C 169.35 165.00 168.25 165.03 167.16 165.06 C 163.35 161.55 167.46 155.47 171.98 155.99 C 179.74 155.95 188.20 154.65 194.00 149.02 C 199.62 144.89 201.98 137.45 208.39 134.25 C 212.48 132.04 215.74 128.69 219.21 125.66 C 216.72 131.57 215.02 137.98 211.03 143.11 C 204.80 147.03 198.37 150.82 193.00 155.92 C 190.02 158.93 185.55 159.69 182.55 162.68 C 179.11 166.07 176.63 170.31 174.47 174.59 C 178.01 171.68 180.20 167.55 183.37 164.30 C 185.58 162.44 188.19 161.11 190.60 159.53 C 187.42 165.81 185.45 172.89 181.95 178.87 C 167.95 179.09 153.95 178.81 139.95 178.91 C 135.77 179.19 131.84 176.84 129.07 173.88 C 129.07 171.08 128.86 168.16 130.36 165.65 C 133.58 165.48 135.19 168.20 134.96 171.17 C 135.45 169.62 136.40 168.06 135.94 166.39 C 135.15 165.07 133.95 164.07 132.87 163.01 C 131.38 163.77 129.93 164.60 128.51 165.48 C 127.06 164.62 125.59 163.80 124.10 163.02 C 123.02 164.08 121.85 165.08 121.05 166.39 C 120.61 168.12 121.60 169.73 122.10 171.33 C 121.74 168.27 123.38 165.40 126.75 165.70 C 128.11 168.24 127.92 171.12 127.93 173.91 C 125.12 176.84 121.20 179.16 117.03 178.91 C 103.04 178.82 89.05 179.08 75.07 178.87 L 74.59 178.56 C 71.73 172.27 69.37 165.76 66.38 159.52 C 68.81 161.11 71.40 162.48 73.64 164.33 C 76.78 167.61 79.03 171.69 82.56 174.62 C 80.49 170.48 78.03 166.48 74.89 163.08 C 71.88 159.84 67.19 159.07 64.05 156.01 C 58.69 150.80 52.17 147.04 45.90 143.09 C 41.99 137.92 40.30 131.54 37.78 125.65 C 41.62 129.05 45.29 132.73 49.95 135.02 C 55.74 138.88 58.26 145.98 64.05 149.89 C 70.43 155.47 79.37 155.99 87.44 156.06 C 89.08 157.52 91.08 158.91 91.62 161.18 C 91.36 162.61 90.54 163.83 89.83 165.07 C 88.74 165.03 87.66 165.00 86.57 164.98 C 85.31 163.64 84.05 162.29 82.66 161.08 C 83.34 163.73 84.76 167.02 87.98 167.03 C 91.37 167.56 92.78 164.03 93.72 161.49 C 92.51 158.57 90.77 155.33 87.44 154.51 C 83.29 153.49 78.88 154.63 74.74 153.39 C 67.58 152.02 62.28 146.43 58.30 140.67 C 54.86 135.53 49.11 132.45 45.81 127.23 C 42.98 120.91 39.91 114.65 37.91 108.00 C 41.43 111.53 44.41 115.61 48.30 118.78 C 53.46 122.94 59.55 125.74 65.69 128.09 C 69.97 134.32 70.14 143.59 77.02 147.98 C 88.77 151.99 102.28 153.82 111.01 163.56 C 110.80 165.68 111.53 168.28 109.70 169.86 C 106.65 170.60 102.93 170.08 101.02 167.34 C 101.14 165.92 101.24 164.51 101.29 163.09 C 99.87 165.59 99.71 169.04 102.36 170.78 C 105.28 172.11 109.10 173.17 111.78 170.77 C 114.17 167.74 113.28 163.03 110.38 160.65 C 104.87 155.79 98.20 152.27 91.08 150.42 C 86.95 148.93 82.48 148.55 78.46 146.73 C 74.01 144.12 72.53 138.86 70.35 134.53 C 76.62 139.01 83.87 141.91 91.24 144.02 C 89.01 137.87 88.35 130.99 84.30 125.63 C 82.63 123.00 80.28 120.90 78.49 118.38 C 76.27 112.14 76.88 105.31 78.81 99.08 Z"/><path d=" M 75.23 185.30 C 108.48 185.58 141.75 185.88 175.00 185.27 C 177.33 185.24 179.67 185.28 182.00 185.42 C 182.71 187.84 181.62 190.28 178.91 190.55 C 147.97 190.08 116.94 190.24 85.96 190.39 C 82.52 190.24 78.57 191.86 75.64 189.33 C 74.11 188.54 75.26 186.57 75.23 185.30 Z"/></g><g fill="#839090"><path d=" M 120.88 63.73 C 123.98 62.43 126.31 59.96 128.57 57.58 C 132.17 62.52 138.03 65.26 143.96 66.14 C 146.21 66.54 148.44 65.79 150.49 64.91 C 150.58 69.13 149.23 73.21 148.30 77.28 C 147.61 80.12 146.22 83.48 143.01 84.11 C 140.62 84.90 139.29 82.48 137.85 81.08 C 138.72 77.99 140.29 75.20 142.17 72.63 C 140.37 74.00 138.37 75.21 136.99 77.03 C 136.12 78.83 136.32 80.91 136.07 82.85 C 138.04 85.04 140.80 85.98 143.64 86.42 C 142.98 87.29 142.33 88.15 141.68 89.02 C 138.71 88.83 135.84 88.04 133.15 86.82 C 132.94 86.31 132.53 85.29 132.33 84.78 C 132.66 82.89 132.79 80.96 132.49 79.05 C 131.27 81.21 129.25 83.84 130.58 86.41 C 132.84 91.85 141.71 89.32 142.78 95.65 C 137.40 96.01 132.22 98.06 128.46 102.00 C 124.55 98.27 119.53 95.83 114.06 95.68 C 114.70 94.45 115.25 93.15 116.10 92.03 C 119.59 90.36 124.69 90.31 126.46 86.27 C 127.83 83.67 125.80 81.11 124.23 79.18 C 124.02 81.44 125.04 83.90 124.11 86.05 C 121.92 88.52 118.32 88.71 115.25 88.95 C 114.62 88.10 113.99 87.26 113.37 86.41 C 116.34 85.81 121.02 85.05 120.80 81.03 C 121.57 76.97 117.64 74.78 114.99 72.62 C 116.73 75.24 118.28 77.99 119.21 81.01 C 117.76 82.38 116.43 84.80 114.07 84.12 C 110.71 83.21 109.16 79.59 108.48 76.46 C 107.68 72.64 106.40 68.84 106.49 64.90 C 111.09 67.47 116.44 65.70 120.88 63.73 M 124.32 66.80 C 123.86 68.65 123.15 70.42 122.24 72.09 C 121.00 71.53 119.75 70.97 118.50 70.41 C 119.40 71.58 120.31 72.74 121.23 73.89 C 124.60 72.96 125.40 69.54 127.19 67.01 C 128.38 67.05 129.52 67.40 130.67 67.70 C 131.23 70.55 132.82 72.99 135.68 73.94 C 136.63 72.78 137.57 71.62 138.51 70.44 C 137.24 70.96 135.98 71.48 134.73 72.01 C 133.83 70.26 133.11 68.42 132.62 66.52 C 130.02 64.47 126.80 64.68 124.32 66.80 M 128.59 73.62 C 128.16 74.19 127.29 75.32 126.86 75.88 C 127.42 76.69 127.98 77.50 128.54 78.31 C 128.93 77.69 129.72 76.46 130.11 75.84 C 129.60 75.10 129.10 74.36 128.59 73.62 Z"/><path d=" M 71.14 84.96 C 73.14 89.35 75.66 93.47 77.92 97.72 C 75.92 104.43 74.60 111.50 76.41 118.43 C 74.57 117.83 72.74 117.25 70.91 116.66 C 70.15 106.11 70.62 95.51 71.14 84.96 Z"/><path d=" M 179.17 97.79 C 181.46 93.53 183.51 89.15 185.86 84.93 C 186.10 95.54 186.75 106.18 186.13 116.78 C 184.23 117.46 182.32 118.10 180.40 118.73 C 182.27 111.76 181.27 104.57 179.17 97.79 Z"/><path d=" M 121.19 107.11 C 121.49 107.09 122.07 107.05 122.37 107.03 C 125.17 109.71 126.74 113.34 128.50 116.73 C 130.30 113.26 132.17 109.81 134.51 106.67 C 134.91 106.94 135.69 107.49 136.09 107.76 C 136.17 109.71 135.86 111.75 136.49 113.64 C 138.80 115.76 141.41 117.54 143.68 119.72 C 142.46 121.59 141.27 123.48 140.18 125.43 C 142.43 128.83 145.16 131.87 148.18 134.61 C 147.45 141.75 140.12 149.17 132.62 146.44 C 129.19 145.54 128.23 140.93 130.48 138.40 C 131.70 136.25 134.37 137.15 136.18 137.85 C 136.11 138.48 135.98 139.73 135.92 140.36 C 135.15 141.47 134.40 142.60 133.67 143.74 C 135.20 142.86 136.65 141.86 138.04 140.78 C 138.05 140.07 138.06 138.66 138.07 137.96 C 136.57 136.62 135.19 134.85 133.11 134.43 C 131.32 134.42 129.98 135.77 128.55 136.64 C 126.87 135.75 125.12 133.75 123.06 134.73 C 120.99 135.55 118.66 137.35 119.01 139.86 C 119.10 141.92 121.41 142.76 122.76 143.91 C 122.16 142.04 120.73 140.30 120.96 138.25 C 122.44 135.66 126.82 137.09 127.35 139.78 C 128.82 142.91 126.37 146.55 123.03 146.83 C 115.75 148.18 109.70 141.34 108.80 134.61 C 111.75 131.80 114.97 129.00 116.57 125.15 C 115.85 123.14 114.47 121.49 113.29 119.75 C 115.56 117.51 118.23 115.74 120.60 113.62 C 121.02 111.48 120.90 109.27 121.19 107.11 Z"/><path d=" M 104.96 181.07 C 112.88 180.93 121.95 182.21 128.47 176.66 C 131.81 179.15 135.78 180.77 139.97 180.94 C 154.57 181.50 169.24 180.48 183.82 181.30 C 185.19 183.38 181.45 183.92 180.03 183.88 C 154.71 183.25 129.36 183.83 104.03 183.57 C 94.67 183.37 85.32 183.89 75.96 183.83 C 74.26 183.99 73.26 182.46 72.27 181.36 C 83.14 180.51 94.07 181.30 104.96 181.07 Z"/><path d=" M 80.63 192.25 C 83.41 192.02 86.19 191.95 88.98 191.95 C 114.65 191.99 140.31 192.01 165.98 191.96 C 169.44 191.94 172.90 191.96 176.36 192.23 C 170.16 196.80 162.15 195.55 154.96 195.66 C 134.30 195.42 113.66 195.61 93.00 195.68 C 88.64 195.82 84.25 194.72 80.63 192.25 Z"/></g></g></svg>