<svg xmlns="http://www.w3.org/2000/svg" width="256" height="256" shape-rendering="geometricPrecision"><g transform="scale(1,1)" stroke-width=".05%"><g fill="#6d9098"><path d=" M 43.04 32.56 C 43.43 32.57 44.21 32.60 44.59 32.61 L 44.27 31.60 C 45.16 31.59 46.94 31.58 47.82 31.57 L 47.13 32.41 C 101.37 32.72 155.60 32.63 209.84 32.64 C 209.88 70.44 209.84 108.24 209.86 146.04 C 209.69 149.34 209.37 152.77 207.85 155.76 C 194.61 176.91 177.15 195.03 158.45 211.41 C 148.49 220.73 137.62 229.03 126.32 236.66 C 116.87 229.85 107.28 223.17 98.70 215.26 C 80.93 199.69 63.67 183.18 50.26 163.60 C 46.99 158.95 42.86 154.20 43.06 148.14 C 43.02 109.62 43.07 71.09 43.04 32.56 M 90.38 48.02 C 90.50 60.67 90.25 73.32 90.53 85.96 C 101.33 85.94 112.12 86.00 122.92 86.06 C 122.94 87.19 122.96 88.32 122.98 89.45 C 122.44 89.95 121.35 90.95 120.81 91.45 C 121.06 126.55 120.79 161.65 120.91 196.76 C 123.26 198.87 123.50 201.99 123.70 204.94 C 123.34 205.61 122.63 206.95 122.27 207.61 C 123.77 210.25 125.14 212.97 126.20 215.82 C 128.31 213.82 129.65 211.22 131.06 208.73 C 130.07 207.41 129.09 206.09 128.13 204.75 C 128.10 203.38 128.06 202.02 128.02 200.65 C 129.17 199.10 130.44 197.65 131.91 196.40 C 132.12 161.41 131.94 126.41 132.05 91.41 C 131.07 90.75 130.09 90.09 129.11 89.43 C 129.14 88.34 129.17 87.25 129.20 86.16 C 131.85 86.14 134.50 86.22 137.15 86.07 C 149.08 84.45 161.16 85.83 173.15 85.18 C 173.13 81.22 173.02 77.25 173.03 73.29 C 166.29 73.88 160.52 69.20 156.88 63.97 C 153.58 59.28 152.63 53.32 154.13 47.80 C 148.73 47.36 143.33 48.05 137.93 47.85 C 122.08 47.96 106.22 47.57 90.38 48.02 Z"/></g><g fill="#5a285e"><path d=" M 90.38 48.02 C 106.22 47.57 122.08 47.96 137.93 47.85 C 143.33 48.05 148.73 47.36 154.13 47.80 C 152.63 53.32 153.58 59.28 156.88 63.97 C 160.52 69.20 166.29 73.88 173.03 73.29 C 173.02 77.25 173.13 81.22 173.15 85.18 C 161.16 85.83 149.08 84.45 137.15 86.07 C 134.50 86.22 131.85 86.14 129.20 86.16 C 129.17 87.25 129.14 88.34 129.11 89.43 C 130.09 90.09 131.07 90.75 132.05 91.41 C 131.94 126.41 132.12 161.41 131.91 196.40 C 130.44 197.65 129.17 199.10 128.02 200.65 C 128.06 202.02 128.10 203.38 128.13 204.75 C 129.09 206.09 130.07 207.41 131.06 208.73 C 129.65 211.22 128.31 213.82 126.20 215.82 C 125.14 212.97 123.77 210.25 122.27 207.61 C 122.63 206.95 123.34 205.61 123.70 204.94 C 123.50 201.99 123.26 198.87 120.91 196.76 C 120.79 161.65 121.06 126.55 120.81 91.45 C 121.35 90.95 122.44 89.95 122.98 89.45 C 122.96 88.32 122.94 87.19 122.92 86.06 C 112.12 86.00 101.33 85.94 90.53 85.96 C 90.25 73.32 90.50 60.67 90.38 48.02 Z"/></g></g></svg>