<svg xmlns="http://www.w3.org/2000/svg" width="256" height="256" shape-rendering="geometricPrecision"><g transform="translate(256, 0) scale(-1, 1)scale(1,1)" stroke-width=".05%"><g fill="#c3c0bf"><path d=" M 62.07 21.98 C 82.54 18.72 103.24 16.91 123.96 16.18 C 140.66 16.04 157.33 17.57 173.93 19.31 C 180.20 20.33 186.60 20.60 192.80 22.04 C 193.31 30.10 195.10 38.10 198.55 45.42 C 199.81 47.74 201.95 49.43 204.24 50.67 C 209.41 53.43 215.09 55.08 220.82 56.25 C 221.19 71.51 220.00 86.73 219.14 101.95 C 217.48 120.96 216.30 140.38 209.52 158.41 C 200.21 183.83 182.45 205.84 160.37 221.34 C 150.24 228.73 139.01 234.38 127.62 239.54 C 103.67 229.37 81.41 214.26 65.30 193.61 C 58.71 185.23 53.05 176.07 48.78 166.29 C 44.55 154.75 41.16 142.87 39.19 130.73 C 35.87 106.00 34.47 81.06 34.12 56.13 C 41.11 54.79 48.75 53.15 53.67 47.57 C 60.04 40.73 61.72 30.99 62.07 21.98 Z"/></g></g><g transform="translate(0, 256) scale(1, -1)scale(1,1)" stroke-width=".05%"><g fill="#41183d"><path d=" M 104.76 58.70 C 111.56 49.10 118.26 39.40 125.70 30.28 C 125.96 36.47 125.67 42.67 125.71 48.87 C 126.34 63.56 125.96 78.28 126.09 92.98 C 126.06 95.89 126.27 99.01 124.73 101.61 C 119.62 111.13 114.58 120.75 110.94 130.94 C 112.55 138.23 115.56 145.17 118.10 152.19 C 119.09 151.49 120.09 150.79 121.10 150.11 C 123.05 152.47 125.17 154.68 127.13 157.04 C 129.66 159.97 130.22 163.94 132.00 167.29 C 133.31 164.75 134.04 161.97 135.28 159.41 C 137.47 156.09 140.35 153.31 142.80 150.20 C 143.91 150.75 145.01 151.29 146.12 151.84 C 148.46 145.52 150.75 139.18 152.80 132.77 C 153.61 130.57 152.12 128.51 151.42 126.51 C 148.09 118.20 143.98 110.24 139.68 102.41 C 136.98 98.09 138.14 92.80 138.05 88.00 C 137.80 68.77 138.39 49.54 138.30 30.31 C 146.60 40.26 153.80 51.09 161.28 61.67 C 163.69 65.00 165.72 68.63 168.63 71.57 C 165.32 78.18 159.76 83.26 154.97 88.76 C 155.33 96.88 152.92 104.71 151.24 112.56 C 155.72 105.80 156.04 97.37 156.78 89.56 C 160.35 85.19 164.70 81.46 167.77 76.68 C 170.23 73.25 172.43 69.64 174.62 66.03 C 177.14 75.83 177.10 85.99 177.44 96.03 C 174.17 99.97 170.14 103.17 165.94 106.05 C 163.31 107.53 163.56 110.94 162.48 113.42 C 161.26 117.95 158.40 121.93 157.75 126.61 C 162.19 121.93 164.03 115.43 165.67 109.34 C 166.34 107.24 168.43 106.10 170.06 104.83 C 175.39 101.07 180.24 96.72 184.75 92.04 C 184.68 106.37 181.63 120.45 177.29 134.04 C 172.57 135.70 167.56 135.98 162.70 136.96 C 160.75 136.06 158.64 132.59 156.56 134.99 C 158.33 136.13 160.10 137.28 161.89 138.39 C 167.14 137.81 172.43 137.17 177.51 135.66 C 180.70 133.55 182.84 130.19 186.02 128.04 C 182.14 136.16 177.21 143.74 173.35 151.88 C 168.81 152.90 164.10 152.10 159.52 152.92 C 157.35 149.84 156.43 146.01 153.84 143.25 C 154.30 147.43 155.71 152.27 159.36 154.74 C 164.06 154.57 168.76 153.97 173.47 153.89 C 175.58 152.02 177.68 150.13 179.82 148.29 C 174.10 157.72 166.22 166.33 155.95 170.79 C 152.05 169.40 149.96 165.76 147.29 162.89 C 146.80 162.82 145.80 162.66 145.31 162.58 C 147.37 166.36 150.54 169.32 153.80 172.06 C 156.13 171.90 158.46 171.70 160.80 171.57 C 156.75 173.70 152.26 174.98 147.67 175.01 C 140.32 180.94 137.54 190.52 131.74 197.74 C 126.46 190.30 123.77 180.83 116.38 175.05 C 111.77 174.75 107.18 173.63 103.03 171.59 C 105.40 171.65 107.77 172.08 110.15 171.93 C 113.68 169.57 116.61 166.30 118.67 162.58 C 116.28 162.19 115.37 164.62 114.05 166.01 C 112.55 168.20 110.34 169.69 108.06 170.98 C 98.13 166.39 90.33 158.22 84.81 148.90 C 86.72 150.54 88.53 152.31 90.59 153.76 C 95.44 154.36 100.38 154.21 105.23 155.00 C 107.95 151.65 109.96 147.61 110.16 143.23 C 107.59 145.97 106.71 149.76 104.68 152.86 C 100.02 152.15 95.26 152.87 90.65 151.88 C 86.85 143.71 81.83 136.18 78.05 128.01 C 81.16 130.24 83.35 133.52 86.51 135.66 C 91.60 137.07 96.85 137.86 102.10 138.39 C 103.89 137.29 105.65 136.15 107.43 135.03 C 105.42 132.50 103.23 136.02 101.30 136.96 C 97.18 136.11 92.96 135.85 88.90 134.74 C 87.78 134.42 86.59 133.79 86.36 132.53 C 82.12 119.57 79.36 106.05 79.48 92.37 C 84.33 97.98 90.07 102.85 96.39 106.75 C 97.51 107.34 98.21 108.41 98.48 109.63 C 99.97 115.66 101.99 121.96 106.26 126.61 C 106.12 125.27 105.95 123.90 105.30 122.70 C 102.90 117.79 101.12 112.60 99.73 107.32 C 95.39 103.93 89.89 101.50 86.85 96.78 C 86.41 86.48 87.23 76.12 89.37 66.03 C 93.37 72.44 97.31 78.98 102.61 84.43 C 104.11 86.16 105.88 87.68 107.22 89.56 C 108.01 97.09 108.16 105.30 112.46 111.83 C 111.10 104.08 108.63 96.43 109.03 88.46 C 103.92 83.22 98.61 77.84 95.79 70.96 C 99.32 67.30 101.84 62.83 104.76 58.70 Z"/></g><g fill="#6c4915"><path d=" M 122.39 149.56 C 125.53 146.64 128.66 143.72 132.00 141.03 C 135.30 143.69 138.44 146.56 141.66 149.32 C 139.97 151.42 138.05 153.33 136.28 155.37 C 134.04 157.87 133.35 161.24 132.01 164.22 C 130.84 161.41 130.16 158.30 128.21 155.88 C 126.37 153.68 124.29 151.70 122.39 149.56 Z"/><path d=" M 123.01 186.76 C 125.66 191.51 128.62 196.09 131.79 200.52 C 134.62 195.95 137.57 191.46 140.69 187.08 C 144.86 196.75 149.13 206.37 153.84 215.79 C 150.10 213.44 146.09 211.60 142.22 209.52 C 140.58 207.08 142.58 203.57 141.08 200.96 C 140.06 199.12 138.82 197.42 137.58 195.74 C 136.37 198.76 139.83 200.90 139.86 203.82 C 139.89 208.23 140.00 212.67 139.59 217.06 C 137.68 220.25 134.62 222.53 132.01 225.13 C 129.26 222.64 126.62 220.01 124.24 217.16 C 124.46 212.73 124.21 208.30 124.16 203.87 C 123.97 201.14 127.71 198.94 126.01 196.27 C 124.95 197.83 123.82 199.36 122.97 201.05 C 121.62 203.67 123.35 207.08 121.86 209.51 C 117.89 211.50 113.78 213.24 110.09 215.77 C 115.00 206.38 119.48 196.74 123.01 186.76 Z"/><path d=" M 106.07 205.07 C 110.27 201.24 114.27 197.20 118.45 193.35 C 117.39 196.23 116.40 199.21 114.73 201.81 C 112.17 203.53 108.91 203.90 106.07 205.07 Z"/><path d=" M 145.54 193.41 C 149.78 197.19 153.78 201.23 157.97 205.07 C 155.11 203.92 151.86 203.52 149.27 201.82 C 147.62 199.22 146.64 196.26 145.54 193.41 Z"/></g></g></svg>