<svg xmlns="http://www.w3.org/2000/svg" width="256" height="256" shape-rendering="geometricPrecision"><g transform="scale(1,1)" stroke-width=".05%"><g fill="#390d00"><path d=" M 91.22 20.07 C 102.82 16.52 114.73 12.89 127.01 13.55 C 143.01 12.82 158.97 16.26 173.74 22.28 C 185.04 28.31 196.45 34.45 206.36 42.63 C 216.81 51.45 224.66 62.90 231.04 74.90 C 237.39 86.42 240.79 99.32 243.08 112.19 C 243.94 121.75 243.79 131.40 243.27 140.98 C 241.83 149.46 239.73 157.84 237.05 166.02 C 229.80 186.52 216.79 205.10 199.39 218.24 C 193.08 222.42 186.69 226.52 179.92 229.95 C 170.48 235.43 159.78 238.15 149.19 240.37 C 142.56 241.83 135.75 241.75 129.01 241.76 C 122.30 241.70 115.48 241.91 108.94 240.16 C 101.22 238.68 93.83 235.98 86.28 233.88 C 81.09 230.91 75.43 228.80 70.43 225.49 C 66.83 223.11 63.13 220.89 59.33 218.85 C 55.58 214.86 51.19 211.52 47.46 207.51 C 42.90 202.37 37.71 197.66 34.53 191.46 C 30.27 184.96 27.00 177.90 22.92 171.29 C 20.25 161.55 16.81 151.97 15.49 141.91 C 14.23 128.54 14.37 114.87 17.73 101.81 C 19.83 93.73 22.05 85.54 26.33 78.29 C 29.92 71.10 34.24 64.32 38.71 57.65 C 51.92 40.22 70.55 27.11 91.22 20.07 M 114.62 19.41 C 113.90 23.35 113.34 27.32 113.00 31.32 C 115.96 30.90 118.92 30.51 121.88 30.13 C 120.23 26.54 118.55 22.96 116.84 19.40 C 116.28 19.40 115.18 19.41 114.62 19.41 M 118.54 18.80 C 121.71 22.85 125.38 26.47 129.24 29.85 C 133.52 26.62 137.37 22.87 140.83 18.79 C 133.41 18.38 125.96 18.25 118.54 18.80 M 138.19 30.12 C 141.13 30.56 144.07 31.00 147.01 31.47 C 146.65 27.08 145.98 22.73 144.88 18.47 C 141.60 21.68 139.94 25.98 138.19 30.12 M 91.07 25.69 C 95.20 28.43 99.55 30.82 104.04 32.92 C 106.93 28.81 109.60 24.54 111.85 20.05 C 104.68 20.88 97.73 22.96 91.07 25.69 M 147.17 20.04 C 149.29 24.61 151.87 28.94 154.84 33.01 C 159.62 31.01 164.23 28.57 168.25 25.26 C 161.35 23.06 154.41 20.82 147.17 20.04 M 87.48 25.55 C 87.34 30.09 87.53 34.63 87.81 39.16 C 90.64 38.17 93.47 37.15 96.30 36.13 C 94.23 31.95 91.42 28.16 87.48 25.55 M 163.23 35.84 C 166.03 37.20 168.83 38.55 171.64 39.89 C 172.35 35.35 172.76 30.76 172.53 26.16 C 168.75 28.67 165.82 32.15 163.23 35.84 M 65.52 39.12 C 70.35 40.99 75.40 42.17 80.52 42.91 C 82.57 37.97 84.06 32.81 84.85 27.52 C 78.09 30.81 71.46 34.46 65.52 39.12 M 174.04 27.59 C 174.68 33.20 176.20 38.67 178.59 43.78 C 183.91 42.84 189.16 41.54 194.27 39.79 C 188.32 34.52 181.16 30.96 174.04 27.59 M 113.45 35.70 C 101.26 38.60 88.44 41.48 78.43 49.46 C 70.32 55.20 63.06 62.08 56.59 69.60 C 49.09 78.50 42.67 88.63 40.01 100.08 C 34.67 116.56 34.03 134.62 38.80 151.32 C 41.15 159.96 43.65 168.82 48.90 176.22 C 53.27 182.38 57.74 188.54 63.25 193.75 C 68.72 199.05 75.03 203.36 81.14 207.86 C 88.87 213.51 98.33 215.77 107.39 218.31 C 128.16 223.87 150.53 220.76 170.01 212.15 C 182.06 205.76 192.58 196.70 201.49 186.44 C 206.52 180.03 211.93 173.66 214.96 166.00 C 219.66 153.22 223.53 139.80 222.79 126.03 C 223.32 114.02 219.70 102.42 215.96 91.17 C 211.22 80.04 203.95 70.04 195.09 61.83 C 184.64 50.40 170.85 41.95 155.79 38.25 C 142.18 33.82 127.49 33.39 113.45 35.70 M 62.84 40.51 C 63.59 44.58 64.87 48.53 66.47 52.35 C 68.77 50.63 71.08 48.92 73.38 47.19 C 70.03 44.72 66.52 42.47 62.84 40.51 M 186.26 46.78 C 186.28 47.21 186.30 48.08 186.31 48.52 C 188.55 49.90 190.80 51.28 193.03 52.68 C 194.61 48.74 196.03 44.72 197.01 40.59 C 193.10 42.03 189.49 44.15 186.26 46.78 M 44.97 58.50 C 49.85 58.65 54.73 58.54 59.60 58.33 C 60.33 53.41 60.55 48.44 60.22 43.48 C 54.67 47.99 49.73 53.18 44.97 58.50 M 198.66 42.91 C 198.51 46.60 198.26 50.31 198.50 54.02 C 198.65 55.48 198.61 57.21 199.94 58.18 C 204.59 58.82 209.30 58.37 213.97 58.32 C 209.21 52.85 204.08 47.72 198.66 42.91 M 41.98 60.97 C 44.10 64.77 46.58 68.33 49.17 71.82 C 50.80 69.41 52.41 66.99 54.04 64.58 C 50.26 62.69 46.21 61.36 41.98 60.97 M 204.95 64.61 C 206.60 66.88 208.23 69.15 209.88 71.42 C 212.26 68.01 214.53 64.52 216.56 60.88 C 212.58 61.74 208.70 63.02 204.95 64.61 M 40.72 63.79 C 36.41 69.95 32.76 76.52 28.99 83.02 C 34.41 82.66 39.62 81.09 44.65 79.14 C 43.89 73.90 42.63 68.74 40.72 63.79 M 214.02 78.32 C 218.90 80.48 224.03 82.06 229.31 82.87 C 226.44 75.78 222.22 69.36 217.95 63.05 C 216.12 67.99 214.80 73.10 214.02 78.32 M 217.09 85.27 C 218.63 87.99 220.19 90.71 221.77 93.41 C 225.20 90.71 228.47 87.79 231.44 84.58 C 226.65 84.06 221.81 84.31 217.09 85.27 M 27.44 84.51 C 29.79 88.54 33.46 91.39 37.20 94.05 C 38.55 91.23 39.88 88.40 41.20 85.57 C 36.63 85.04 32.04 84.56 27.44 84.51 M 231.66 88.52 C 228.74 92.73 226.31 97.26 224.23 101.94 C 228.31 104.79 232.56 107.39 237.04 109.58 C 236.46 102.30 234.43 95.25 231.66 88.52 M 21.16 110.17 C 25.75 108.08 30.09 105.51 34.22 102.62 C 32.46 97.80 30.04 93.26 26.97 89.15 C 24.07 95.86 22.39 102.99 21.16 110.17 M 226.20 109.25 C 226.40 112.26 226.61 115.27 226.82 118.28 C 230.48 116.92 234.10 115.44 237.63 113.77 C 237.67 113.24 237.73 112.17 237.76 111.64 C 233.91 110.80 230.06 110.01 226.20 109.25 M 19.66 112.94 C 23.40 115.30 27.37 117.27 31.44 119.02 C 31.88 116.03 32.34 113.05 32.77 110.07 C 28.29 110.45 23.88 111.39 19.66 112.94 M 228.08 127.07 C 230.18 131.84 234.63 134.94 238.39 138.34 C 238.84 130.90 238.84 123.42 238.32 115.98 C 234.70 119.46 230.55 122.61 228.08 127.07 M 20.48 138.80 C 24.26 135.41 27.77 131.75 31.11 127.93 C 27.92 123.85 24.32 120.12 20.53 116.61 C 19.37 123.96 19.40 131.44 20.48 138.80 M 226.95 135.01 C 226.70 137.99 226.45 140.96 226.19 143.94 C 230.38 143.40 234.56 142.77 238.69 141.88 C 235.81 138.10 231.15 136.74 226.95 135.01 M 19.63 141.42 C 23.80 143.18 28.21 144.24 32.71 144.72 C 32.27 141.61 31.80 138.49 31.35 135.38 C 27.36 137.21 23.39 139.13 19.63 141.42 M 225.28 152.42 C 225.37 157.31 228.82 161.40 231.67 165.11 C 234.71 158.83 236.24 151.93 237.01 145.03 C 232.99 147.29 228.64 149.18 225.28 152.42 M 21.13 145.31 C 22.43 152.42 24.31 159.42 26.87 166.19 C 29.87 162.11 32.39 157.71 34.08 152.93 C 29.89 150.19 25.58 147.62 21.13 145.31 M 28.29 167.33 C 28.23 167.96 28.10 169.21 28.04 169.84 C 32.15 169.74 36.25 169.55 40.35 169.28 C 39.30 166.42 38.25 163.56 37.19 160.71 C 34.16 162.83 31.18 165.02 28.29 167.33 M 217.95 168.50 C 222.58 169.17 227.25 169.61 231.93 169.50 C 229.15 165.75 225.53 162.78 221.73 160.13 C 220.46 162.91 219.21 165.71 217.95 168.50 M 214.18 176.55 C 215.13 181.56 216.42 186.49 218.17 191.28 C 222.88 185.41 226.29 178.67 229.66 171.98 C 224.27 172.62 219.05 174.19 214.18 176.55 M 28.95 172.24 C 31.95 179.16 35.37 186.07 40.54 191.66 C 42.45 186.87 43.64 181.84 44.58 176.78 C 39.49 174.89 34.28 173.30 28.95 172.24 M 41.72 194.83 C 45.98 193.79 50.13 192.37 54.24 190.87 C 52.42 188.34 50.60 185.82 48.79 183.28 C 45.93 186.80 43.48 190.64 41.72 194.83 M 204.93 190.32 C 208.80 192.02 212.86 193.27 217.03 193.97 C 214.93 190.29 212.53 186.80 210.02 183.38 C 208.32 185.69 206.62 188.01 204.93 190.32 M 44.66 196.81 C 48.89 202.54 54.43 207.05 59.78 211.66 C 60.24 206.79 60.13 201.91 59.58 197.06 C 54.62 196.60 49.63 196.49 44.66 196.81 M 198.70 211.57 C 204.27 207.14 209.18 201.98 213.79 196.58 C 208.98 196.45 204.18 196.52 199.37 196.69 C 198.66 201.61 198.45 206.59 198.70 211.57 M 66.51 202.72 C 64.83 206.66 63.56 210.77 62.77 214.99 C 66.47 212.92 69.99 210.54 73.37 207.98 C 71.09 206.21 68.80 204.46 66.51 202.72 M 185.65 207.70 C 189.05 210.47 192.75 212.89 196.87 214.44 C 195.77 210.43 194.34 206.54 192.82 202.68 C 190.44 204.36 188.04 206.02 185.65 207.70 M 65.74 216.33 C 71.60 220.99 78.22 224.57 84.87 227.96 C 83.98 222.94 82.69 218.00 81.10 213.16 C 75.83 213.32 70.69 214.58 65.74 216.33 M 177.97 212.22 C 176.08 217.28 174.60 222.50 174.09 227.91 C 180.62 223.99 187.39 220.45 193.52 215.90 C 188.47 214.16 183.26 212.92 177.97 212.22 M 163.12 219.74 C 165.61 222.64 168.07 225.57 170.49 228.54 C 171.05 228.56 172.17 228.61 172.73 228.63 C 172.64 224.21 172.31 219.81 171.62 215.45 C 168.78 216.86 165.95 218.29 163.12 219.74 M 87.42 229.75 C 91.31 227.22 94.11 223.50 96.71 219.74 C 93.89 218.51 91.07 217.31 88.25 216.11 C 87.54 220.62 87.22 225.18 87.42 229.75 M 91.00 230.03 C 97.80 232.40 104.75 234.38 111.87 235.54 C 109.64 231.14 107.10 226.93 104.42 222.80 C 99.52 224.34 95.07 226.93 91.00 230.03 M 147.05 235.67 C 154.31 234.39 161.45 232.45 168.39 229.94 C 164.21 226.93 159.67 224.48 155.01 222.32 C 151.90 226.48 149.23 230.95 147.05 235.67 M 138.18 225.37 C 139.87 228.87 141.53 232.39 143.20 235.91 C 143.74 235.82 144.82 235.65 145.37 235.56 C 146.08 231.77 146.65 227.95 147.02 224.11 C 144.07 224.52 141.12 224.93 138.18 225.37 M 112.98 224.13 C 113.35 228.02 113.90 231.89 114.55 235.75 C 115.15 235.75 116.36 235.75 116.96 235.75 C 118.58 232.32 120.18 228.90 121.82 225.49 C 118.88 225.02 115.93 224.56 112.98 224.13 M 118.51 236.51 C 125.89 236.89 133.27 236.91 140.64 236.44 C 137.29 232.43 133.47 228.82 129.25 225.73 C 125.36 229.01 121.73 232.57 118.51 236.51 Z"/></g></g><g transform="translate(0, 256) scale(1, -1)translate(0, 256) scale(1, -1)scale(1,1)" stroke-width=".05%"><g fill="#5a285e"><path d=" M 117.74 23.75 C 119.19 24.88 119.33 26.77 119.67 28.44 C 120.84 33.89 120.25 39.50 120.44 45.03 C 120.49 52.40 122.26 59.61 123.30 66.87 C 124.20 73.22 123.39 79.61 123.57 85.98 C 123.71 90.69 125.55 95.19 125.43 99.92 C 125.41 104.64 125.41 109.36 125.76 114.07 C 126.22 115.74 126.69 117.42 127.25 119.06 C 126.12 122.87 123.45 127.39 118.98 127.44 C 112.80 127.69 106.08 130.72 103.74 136.81 C 102.58 141.31 102.86 146.47 105.62 150.36 C 110.54 158.26 119.15 163.09 127.94 165.46 C 133.85 164.71 139.35 161.59 144.22 158.23 C 148.89 154.28 153.58 149.17 154.06 142.78 C 154.23 138.63 152.84 134.19 149.47 131.57 C 145.69 128.37 140.65 127.54 135.88 127.14 C 130.91 124.92 128.94 118.96 131.20 114.05 C 132.12 106.70 130.73 99.18 132.59 91.95 C 134.43 84.43 132.68 76.66 133.48 69.04 C 134.40 60.70 136.62 52.48 136.58 44.04 C 136.76 37.12 135.81 29.81 139.02 23.38 C 139.64 26.89 138.95 30.47 139.38 34.00 C 141.42 42.70 147.40 49.75 150.03 58.24 C 152.35 64.90 153.19 72.11 152.14 79.10 C 151.61 82.95 149.38 86.25 148.40 89.98 C 147.36 93.70 146.48 97.47 145.66 101.25 C 144.64 105.22 146.76 108.99 148.62 112.34 C 147.33 107.40 146.20 102.05 148.12 97.11 C 151.36 87.74 157.70 79.73 160.24 70.07 C 161.55 62.46 158.89 54.96 156.33 47.91 C 157.28 48.26 159.19 48.95 160.14 49.29 C 159.43 49.24 158.00 49.14 157.28 49.09 C 160.74 52.62 162.66 57.32 164.44 61.85 C 167.40 70.72 170.32 80.08 168.93 89.54 C 168.06 98.45 161.58 105.40 159.40 113.91 C 158.76 116.71 160.36 119.26 161.35 121.75 C 161.27 118.06 161.12 114.28 162.54 110.78 C 164.00 105.16 168.43 101.10 170.83 95.93 C 172.84 91.56 174.38 86.86 174.54 82.01 C 174.76 77.07 172.66 72.42 172.42 67.52 C 180.59 74.81 182.47 86.55 182.72 96.96 C 183.03 107.49 175.53 115.71 172.11 125.13 C 171.22 126.87 171.53 128.84 171.68 130.70 C 172.62 127.90 173.03 124.58 175.49 122.62 C 180.18 118.58 185.82 115.37 189.00 109.88 C 191.30 106.27 191.94 101.99 192.74 97.87 C 198.54 108.64 195.90 123.57 185.98 131.03 C 182.16 133.83 177.97 136.58 176.12 141.16 C 183.05 142.83 190.61 140.67 195.68 135.70 C 199.21 132.56 201.51 128.39 204.39 124.71 C 205.05 129.00 201.95 132.44 200.45 136.19 C 197.43 142.93 192.42 149.87 184.73 151.38 C 181.21 151.64 177.14 150.90 174.81 154.22 C 178.56 155.71 182.54 154.91 186.41 154.58 C 184.63 164.49 178.31 173.90 168.77 177.75 C 165.31 179.42 161.51 180.95 159.11 184.11 C 157.52 186.42 156.52 189.09 155.72 191.76 C 155.62 194.49 155.88 197.23 155.38 199.93 C 152.57 201.52 151.01 204.12 150.25 207.18 C 146.18 209.81 145.90 214.72 144.22 218.80 C 138.80 222.83 132.19 227.23 125.08 225.54 C 121.32 224.40 117.91 222.31 114.57 220.27 C 111.70 218.63 111.67 214.98 110.63 212.20 C 110.02 209.11 106.18 208.07 105.86 204.83 C 105.46 202.54 103.31 201.35 101.71 199.94 C 100.64 196.50 102.20 192.74 100.54 189.46 C 99.54 187.01 98.56 184.39 96.51 182.61 C 91.72 178.33 84.84 177.31 80.29 172.69 C 75.13 167.96 71.90 161.44 70.63 154.61 C 74.50 154.86 78.51 155.67 82.24 154.13 C 79.67 150.74 75.40 151.77 71.74 151.29 C 64.04 149.49 59.30 142.35 56.24 135.58 C 54.80 132.07 52.01 128.79 52.62 124.77 C 55.88 128.95 58.59 133.66 62.79 137.02 C 67.82 140.92 74.57 142.76 80.82 141.15 C 78.05 133.79 69.24 131.83 65.57 125.17 C 60.32 117.22 59.74 106.29 64.29 97.92 C 65.08 102.33 65.88 106.90 68.48 110.66 C 71.71 115.74 77.08 118.71 81.50 122.60 C 83.90 124.55 84.31 127.78 85.43 130.48 C 85.45 129.67 85.47 128.04 85.49 127.23 C 83.30 119.24 77.86 112.63 75.40 104.75 C 74.44 101.93 74.50 98.89 73.81 96.01 C 75.28 86.05 76.32 74.63 84.53 67.61 C 84.45 72.17 82.45 76.44 82.46 81.00 C 82.37 86.44 84.21 91.71 86.52 96.57 C 88.87 101.45 93.05 105.37 94.39 110.75 C 95.86 114.24 95.72 118.03 95.64 121.74 C 96.68 119.27 98.14 116.73 97.65 113.95 C 95.57 105.49 89.02 98.67 88.10 89.85 C 86.84 81.82 88.75 73.72 91.18 66.09 C 92.93 60.08 95.47 54.24 99.25 49.22 C 98.59 49.17 97.27 49.09 96.61 49.04 C 97.44 48.94 99.11 48.74 99.94 48.64 C 98.62 55.39 95.40 61.99 96.65 69.02 C 98.82 80.21 107.09 88.98 109.66 100.02 C 110.44 104.24 109.34 108.44 108.35 112.52 C 110.01 109.29 112.12 105.82 111.47 102.04 C 110.79 98.38 109.84 94.77 108.93 91.16 C 107.96 87.00 105.61 83.29 104.87 79.07 C 103.30 69.24 105.80 59.17 110.25 50.40 C 113.23 45.19 116.09 39.81 117.63 33.97 C 117.90 30.57 117.57 27.15 117.74 23.75 M 84.67 157.98 C 86.78 159.12 89.00 160.04 91.20 160.97 C 93.45 166.74 96.74 172.82 103.15 174.66 C 106.05 179.17 111.18 181.26 115.84 183.43 C 112.01 184.89 112.81 188.98 112.75 192.25 C 113.02 192.58 113.57 193.24 113.84 193.57 C 116.87 193.55 120.04 194.51 121.92 197.03 C 124.02 199.89 128.27 201.57 131.47 199.49 C 134.00 197.68 135.89 195.06 138.80 193.78 C 140.36 193.46 143.01 194.39 143.41 192.15 C 143.72 188.86 143.84 185.09 140.70 183.08 C 145.55 181.54 150.19 178.85 153.12 174.60 C 159.26 172.87 162.78 167.12 164.66 161.42 C 166.74 160.11 169.01 159.19 171.25 158.22 C 167.12 156.11 162.43 158.64 158.79 160.72 C 153.40 163.74 152.65 170.46 148.79 174.81 C 145.81 178.59 140.94 179.86 136.72 181.74 C 136.71 182.62 136.70 184.37 136.69 185.25 C 137.54 185.78 138.40 186.32 139.26 186.86 C 139.29 187.77 139.36 189.59 139.40 190.51 C 137.37 191.55 135.31 192.54 133.25 193.53 C 133.03 193.93 132.59 194.74 132.37 195.14 C 130.88 195.96 129.40 196.77 127.92 197.59 C 126.20 196.48 124.51 195.32 123.01 193.93 C 121.32 192.29 118.78 191.97 117.04 190.43 C 116.88 189.31 116.78 188.18 116.72 187.04 C 117.69 186.45 118.65 185.87 119.61 185.28 C 119.54 184.38 119.41 182.57 119.35 181.67 C 115.25 180.05 110.82 178.61 107.82 175.18 C 103.91 171.38 103.50 165.18 99.03 161.84 C 95.03 158.79 89.77 156.21 84.67 157.98 M 114.81 210.18 C 117.64 212.70 121.14 214.56 124.99 214.80 C 131.03 215.57 138.29 214.73 142.33 209.61 C 139.58 210.21 137.20 211.71 134.89 213.24 C 130.59 213.55 126.28 213.56 121.99 213.21 C 119.81 211.74 117.59 209.98 114.81 210.18 Z"/></g></g></svg>