<svg xmlns="http://www.w3.org/2000/svg" width="256" height="256" shape-rendering="geometricPrecision"><g transform="translate(0, 256) scale(1, -1)scale(1,1)" stroke-width=".05%"><g fill="#1a181b"><path d=" M 68.86 35.89 C 69.73 34.44 70.72 33.06 71.62 31.63 C 109.06 31.81 146.51 31.54 183.96 31.77 C 202.11 63.68 220.67 95.35 238.95 127.19 C 239.55 128.12 239.94 129.17 239.10 130.11 C 222.78 158.18 206.63 186.34 190.38 214.45 C 188.15 218.42 185.88 222.37 183.40 226.18 C 171.96 225.16 160.47 226.37 149.01 225.81 C 134.33 225.96 119.64 225.75 104.95 226.04 C 93.74 225.50 82.49 226.26 71.29 225.67 C 54.68 197.27 38.38 168.68 21.88 140.21 C 19.80 136.25 17.07 132.61 15.39 128.45 C 33.27 97.64 51.06 66.75 68.86 35.89 Z"/></g></g><g transform="translate(256, 0) scale(-1, 1)scale(1,1)" stroke-width=".05%"><g fill="#214371"><path d=" M 102.00 49.84 C 108.63 50.41 115.33 50.94 121.64 53.22 C 130.20 54.92 138.33 58.17 146.44 61.30 C 153.50 63.79 159.52 68.51 166.86 70.33 C 169.88 67.63 173.38 69.82 176.38 71.34 C 178.87 72.49 180.08 75.10 181.50 77.28 C 179.81 79.48 180.67 82.17 180.60 84.69 C 180.80 84.07 181.21 82.84 181.41 82.23 C 184.76 86.61 188.24 90.90 192.27 94.69 C 202.25 105.81 210.01 118.66 217.36 131.60 C 219.44 134.96 219.12 139.04 219.69 142.80 C 217.62 142.28 215.55 141.78 213.51 141.18 C 208.23 131.33 200.97 122.69 193.36 114.58 C 186.96 108.70 181.13 102.07 173.72 97.40 C 166.31 103.90 159.30 110.90 153.25 118.71 C 152.49 118.73 150.97 118.77 150.21 118.79 C 145.60 122.25 142.63 127.34 139.54 132.09 C 133.77 141.87 125.37 149.77 119.55 159.52 C 111.80 168.98 105.36 179.42 98.27 189.37 C 95.37 193.19 94.14 197.89 91.99 202.11 C 90.11 206.09 87.50 209.67 85.40 213.53 C 85.30 214.16 85.10 215.41 85.00 216.04 C 82.19 216.97 78.85 217.58 76.21 215.83 C 72.74 213.57 68.81 211.85 66.13 208.58 C 64.94 206.39 64.38 203.93 63.49 201.62 C 64.58 199.58 65.29 197.23 66.99 195.59 C 69.04 194.43 71.47 193.92 73.21 192.24 C 80.80 185.46 88.26 178.42 94.24 170.14 C 108.83 151.94 123.80 134.01 137.40 115.05 C 137.26 113.57 136.76 111.95 137.82 110.66 C 140.38 106.59 141.62 101.54 145.52 98.42 C 149.85 94.00 153.05 88.64 155.94 83.21 C 151.77 79.08 146.46 76.48 141.52 73.45 C 129.73 66.09 116.72 60.71 103.33 57.08 C 101.61 55.27 100.68 52.89 99.43 50.78 C 100.20 51.06 101.74 51.62 102.51 51.90 C 102.38 51.39 102.12 50.36 102.00 49.84 Z"/></g><g fill="#74131b"><path d=" M 64.40 69.23 C 74.46 67.99 84.26 65.24 94.05 62.69 C 95.01 63.83 95.97 64.99 96.93 66.14 C 95.71 70.76 95.72 75.86 93.06 80.00 C 89.64 85.74 84.30 90.04 80.78 95.72 C 79.97 96.98 79.74 98.50 79.71 99.97 C 83.21 104.22 87.35 108.00 92.01 110.95 C 98.24 114.97 103.20 120.56 109.03 125.09 C 113.14 128.34 117.12 131.76 121.01 135.28 C 118.55 138.79 115.77 142.06 113.08 145.39 C 110.93 143.36 108.83 141.26 106.42 139.54 C 100.03 135.06 94.55 129.47 88.44 124.64 C 82.45 119.91 77.79 113.54 71.07 109.76 C 66.35 112.64 62.57 116.77 59.24 121.12 C 57.43 123.52 55.22 125.64 52.44 126.88 C 45.01 121.42 38.25 115.15 31.15 109.27 C 32.31 107.40 33.38 105.47 34.84 103.82 C 44.87 92.45 53.73 80.00 64.40 69.23 Z"/><path d=" M 131.33 145.53 C 136.24 148.13 140.09 152.24 144.44 155.63 C 152.20 161.50 159.60 167.85 167.62 173.37 C 174.12 178.20 180.01 183.79 186.49 188.65 C 189.26 190.33 189.35 193.84 189.58 196.72 C 188.11 200.65 183.94 203.12 180.08 204.18 C 176.92 202.38 174.19 199.94 171.38 197.66 C 159.18 187.89 147.18 177.85 135.62 167.33 C 131.23 163.77 126.78 160.22 123.11 155.89 C 125.46 152.14 128.58 148.98 131.33 145.53 Z"/></g></g></svg>